<svg xmlns="http://www.w3.org/2000/svg" width="124.523" height="63.763" viewBox="0 0 124.523 63.763">
  <g id="Gruppe_5" data-name="Gruppe 5" transform="translate(-1190.96 160.382)">
    <g id="Gruppe_3" data-name="Gruppe 3" transform="translate(-500.044 -225)">
      <g id="Pfad_1" data-name="Pfad 1" transform="translate(1799.263 95.855) rotate(45)" fill="none">
        <path d="M0,0,18.757,4.243,23,23,4.243,18.757Z" stroke="none"/>
        <path d="M 2.649885177612305 2.649885177612305 L 5.914915084838867 17.08507537841797 L 20.35011291503906 20.35011291503906 L 17.08507537841797 5.914915084838867 L 2.649885177612305 2.649885177612305 M 0 0 L 18.75735092163086 4.242639541625977 L 23 23 L 4.242639541625977 18.75735092163086 L 0 0 Z" stroke="none" fill="#eb7964"/>
      </g>
      <g id="Pfad_4" data-name="Pfad 4" transform="translate(1779.263 95.855) rotate(45)" fill="none">
        <path d="M0,0,18.757,4.243,23,23,4.243,18.757Z" stroke="none"/>
        <path d="M 2.649885177612305 2.649885177612305 L 5.914915084838867 17.08507537841797 L 20.35011291503906 20.35011291503906 L 17.08507537841797 5.914915084838867 L 2.649885177612305 2.649885177612305 M 0 0 L 18.75735092163086 4.242639541625977 L 23 23 L 4.242639541625977 18.75735092163086 L 0 0 Z" stroke="none" fill="#eb7964"/>
      </g>
      <g id="Pfad_6" data-name="Pfad 6" transform="translate(1759.263 95.855) rotate(45)" fill="none">
        <path d="M0,0,18.757,4.243,23,23,4.243,18.757Z" stroke="none"/>
        <path d="M 2.649885177612305 2.649885177612305 L 5.914915084838867 17.08507537841797 L 20.35011291503906 20.35011291503906 L 17.08507537841797 5.914915084838867 L 2.649885177612305 2.649885177612305 M 0 0 L 18.75735092163086 4.242639541625977 L 23 23 L 4.242639541625977 18.75735092163086 L 0 0 Z" stroke="none" fill="#eb7964"/>
      </g>
      <g id="Pfad_2" data-name="Pfad 2" transform="translate(1799.263 64.618) rotate(45)" fill="none">
        <path d="M0,0,18.757,4.243,23,23,4.243,18.757Z" stroke="none"/>
        <path d="M 2.649885177612305 2.649885177612305 L 5.914915084838867 17.08507537841797 L 20.35011291503906 20.35011291503906 L 17.08507537841797 5.914915084838867 L 2.649885177612305 2.649885177612305 M 0 0 L 18.75735092163086 4.242639541625977 L 23 23 L 4.242639541625977 18.75735092163086 L 0 0 Z" stroke="none" fill="#eb7964"/>
      </g>
      <g id="Pfad_3" data-name="Pfad 3" transform="translate(1779.263 64.618) rotate(45)" fill="none">
        <path d="M0,0,18.757,4.243,23,23,4.243,18.757Z" stroke="none"/>
        <path d="M 2.649885177612305 2.649885177612305 L 5.914915084838867 17.08507537841797 L 20.35011291503906 20.35011291503906 L 17.08507537841797 5.914915084838867 L 2.649885177612305 2.649885177612305 M 0 0 L 18.75735092163086 4.242639541625977 L 23 23 L 4.242639541625977 18.75735092163086 L 0 0 Z" stroke="none" fill="#eb7964"/>
      </g>
      <g id="Pfad_5" data-name="Pfad 5" transform="translate(1759.263 64.618) rotate(45)" fill="none">
        <path d="M0,0,18.757,4.243,23,23,4.243,18.757Z" stroke="none"/>
        <path d="M 2.649885177612305 2.649885177612305 L 5.914915084838867 17.08507537841797 L 20.35011291503906 20.35011291503906 L 17.08507537841797 5.914915084838867 L 2.649885177612305 2.649885177612305 M 0 0 L 18.75735092163086 4.242639541625977 L 23 23 L 4.242639541625977 18.75735092163086 L 0 0 Z" stroke="none" fill="#eb7964"/>
      </g>
    </g>
    <text id="games_science_center" data-name="games
science
center" transform="translate(1190.96 -145.382)" fill="#eb7964" font-size="15" font-family="HindMadurai-Regular, Hind Madurai"><tspan x="0" y="0">games</tspan><tspan x="0" y="21">science</tspan><tspan x="0" y="42">center</tspan></text>
  </g>
</svg>
